<svg xmlns="http://www.w3.org/2000/svg" viewBox="14 34 212 212"><defs><filter id="blur" x="-30%" y="-30%" width="160%" height="160%"><feGaussianBlur stdDeviation="3"/></filter><linearGradient id="l406" x1="0" y1="0" x2="0" y2="1"><stop offset="0" stop-color="#c98f55"/><stop offset="1" stop-color="#a86d38"/></linearGradient><radialGradient id="g407" cx="35%" cy="30%" r="80%"><stop offset="0" stop-color="#f7c672"/><stop offset=".55" stop-color="#d6892e"/><stop offset="1" stop-color="#91501a"/></radialGradient></defs><rect width="240" height="240" fill="#FFF6E8"/><ellipse cx="120" cy="150" rx="104" ry="60" fill="#3b2a1a" opacity="0.2" filter="url(#blur)"/><rect x="18" y="70" width="204" height="130" rx="22" fill="url(#l406)"/><path d="M30 92 Q120 86 210 92" stroke="#b27a43" stroke-width="2" fill="none" opacity=".5"/><path d="M30 120 Q120 114 210 120" stroke="#b27a43" stroke-width="2" fill="none" opacity=".5"/><path d="M30 148 Q120 142 210 148" stroke="#b27a43" stroke-width="2" fill="none" opacity=".5"/><path d="M30 176 Q120 170 210 176" stroke="#b27a43" stroke-width="2" fill="none" opacity=".5"/><ellipse cx="122" cy="152" rx="52" ry="7" fill="#3b2a1a" opacity="0.18" filter="url(#blur)"/><path d="M74 128 Q74 104 100 102 L160 102 Q172 104 172 128 Q172 150 160 152 L100 152 Q74 150 74 128Z" fill="url(#g407)"/><ellipse cx="166" cy="127" rx="10" ry="24" fill="#fbf0d4" stroke="#c98a3c" stroke-width="3"/><path d="M96 108 q10 18 22 0" stroke="#fff2c8" stroke-width="3" fill="none" opacity=".8"/><path d="M120 108 q10 18 22 0" stroke="#fff2c8" stroke-width="3" fill="none" opacity=".8"/><path d="M144 108 q10 18 22 0" stroke="#fff2c8" stroke-width="3" fill="none" opacity=".8"/></svg>