<svg xmlns="http://www.w3.org/2000/svg" viewBox="14 34 212 212"><defs><filter id="blur" x="-30%" y="-30%" width="160%" height="160%"><feGaussianBlur stdDeviation="3"/></filter><linearGradient id="l523" x1="0" y1="0" x2="0" y2="1"><stop offset="0" stop-color="#ffffff"/><stop offset="1" stop-color="#e7ecf2"/></linearGradient><linearGradient id="l524" x1="0" y1="0" x2="0" y2="1"><stop offset="0" stop-color="#f3f6f9"/><stop offset="1" stop-color="#ffffff"/></linearGradient><radialGradient id="g525" cx="35%" cy="30%" r="80%"><stop offset="0" stop-color="#a8644a"/><stop offset=".55" stop-color="#6e3420"/><stop offset="1" stop-color="#3e180c"/></radialGradient><radialGradient id="g526" cx="35%" cy="30%" r="80%"><stop offset="0" stop-color="#a8644a"/><stop offset=".55" stop-color="#6e3420"/><stop offset="1" stop-color="#3e180c"/></radialGradient></defs><rect width="240" height="240" fill="#FFF6E8"/><ellipse cx="120" cy="140" rx="98" ry="74.1" fill="#3b2a1a" opacity="0.2" filter="url(#blur)"/><ellipse cx="120" cy="132" rx="100" ry="78" fill="url(#l523)"/><ellipse cx="120" cy="134" rx="78" ry="59.28" fill="url(#l524)" stroke="#dfe5ec" stroke-width="1.5"/><g transform="rotate(-8 92 128)"><ellipse cx="92" cy="150" rx="29.700000000000003" ry="5" fill="#3b2a1a" opacity="0.18" filter="url(#blur)"/><path d="M65 118 Q69 108 83 108 L110 110 Q119 112 119 121.33333333333333 L117 141.33333333333334 Q113 148 105.5 148 L74 146 Q65 144 65 136Z" fill="url(#g525)"/></g><g transform="rotate(10 152 124)"><ellipse cx="152" cy="144.9" rx="27.500000000000004" ry="5" fill="#3b2a1a" opacity="0.18" filter="url(#blur)"/><path d="M127 114.5 Q131 105 143.66666666666666 105 L168.66666666666666 107 Q177 109 177 117.66666666666667 L175 136.66666666666666 Q171 143 164.5 143 L135.33333333333334 141 Q127 139 127 131.6Z" fill="url(#g526)"/></g></svg>