<svg xmlns="http://www.w3.org/2000/svg" viewBox="14 34 212 212"><defs><filter id="blur" x="-30%" y="-30%" width="160%" height="160%"><feGaussianBlur stdDeviation="3"/></filter><radialGradient id="g496" cx="35%" cy="30%" r="80%"><stop offset="0" stop-color="#ffffff"/><stop offset=".55" stop-color="#f3eedc"/><stop offset="1" stop-color="#d6ceb2"/></radialGradient><linearGradient id="l497" x1="0" y1="0" x2="0" y2="1"><stop offset="0" stop-color="#ffffff"/><stop offset="1" stop-color="#e7ecf2"/></linearGradient><linearGradient id="l498" x1="0" y1="0" x2="0" y2="1"><stop offset="0" stop-color="#f3f6f9"/><stop offset="1" stop-color="#ffffff"/></linearGradient></defs><rect width="240" height="240" fill="#FFF6E8"/><ellipse cx="120" cy="140" rx="98" ry="74.1" fill="#3b2a1a" opacity="0.2" filter="url(#blur)"/><ellipse cx="120" cy="132" rx="100" ry="78" fill="url(#l497)"/><ellipse cx="120" cy="134" rx="78" ry="59.28" fill="url(#l498)" stroke="#dfe5ec" stroke-width="1.5"/><ellipse cx="66" cy="122" rx="16" ry="4" fill="#3b2a1a" opacity="0.18" filter="url(#blur)"/><path d="M61 102 L62 120 L70 120 L71 102Z" fill="#cfe0a8"/><circle cx="57" cy="98" r="9" fill="url(#g496)"/><circle cx="66" cy="91" r="10" fill="url(#g496)"/><circle cx="75" cy="98" r="9" fill="url(#g496)"/><circle cx="66" cy="102" r="9" fill="url(#g496)"/><ellipse cx="104" cy="118" rx="16" ry="4" fill="#3b2a1a" opacity="0.18" filter="url(#blur)"/><path d="M99 98 L100 116 L108 116 L109 98Z" fill="#cfe0a8"/><circle cx="95" cy="94" r="9" fill="url(#g496)"/><circle cx="104" cy="87" r="10" fill="url(#g496)"/><circle cx="113" cy="94" r="9" fill="url(#g496)"/><circle cx="104" cy="98" r="9" fill="url(#g496)"/><ellipse cx="142" cy="118" rx="16" ry="4" fill="#3b2a1a" opacity="0.18" filter="url(#blur)"/><path d="M137 98 L138 116 L146 116 L147 98Z" fill="#cfe0a8"/><circle cx="133" cy="94" r="9" fill="url(#g496)"/><circle cx="142" cy="87" r="10" fill="url(#g496)"/><circle cx="151" cy="94" r="9" fill="url(#g496)"/><circle cx="142" cy="98" r="9" fill="url(#g496)"/><ellipse cx="180" cy="122" rx="16" ry="4" fill="#3b2a1a" opacity="0.18" filter="url(#blur)"/><path d="M175 102 L176 120 L184 120 L185 102Z" fill="#cfe0a8"/><circle cx="171" cy="98" r="9" fill="url(#g496)"/><circle cx="180" cy="91" r="10" fill="url(#g496)"/><circle cx="189" cy="98" r="9" fill="url(#g496)"/><circle cx="180" cy="102" r="9" fill="url(#g496)"/><ellipse cx="66" cy="162" rx="16" ry="4" fill="#3b2a1a" opacity="0.18" filter="url(#blur)"/><path d="M61 142 L62 160 L70 160 L71 142Z" fill="#cfe0a8"/><circle cx="57" cy="138" r="9" fill="url(#g496)"/><circle cx="66" cy="131" r="10" fill="url(#g496)"/><circle cx="75" cy="138" r="9" fill="url(#g496)"/><circle cx="66" cy="142" r="9" fill="url(#g496)"/><ellipse cx="104" cy="158" rx="16" ry="4" fill="#3b2a1a" opacity="0.18" filter="url(#blur)"/><path d="M99 138 L100 156 L108 156 L109 138Z" fill="#cfe0a8"/><circle cx="95" cy="134" r="9" fill="url(#g496)"/><circle cx="104" cy="127" r="10" fill="url(#g496)"/><circle cx="113" cy="134" r="9" fill="url(#g496)"/><circle cx="104" cy="138" r="9" fill="url(#g496)"/><ellipse cx="142" cy="158" rx="16" ry="4" fill="#3b2a1a" opacity="0.18" filter="url(#blur)"/><path d="M137 138 L138 156 L146 156 L147 138Z" fill="#cfe0a8"/><circle cx="133" cy="134" r="9" fill="url(#g496)"/><circle cx="142" cy="127" r="10" fill="url(#g496)"/><circle cx="151" cy="134" r="9" fill="url(#g496)"/><circle cx="142" cy="138" r="9" fill="url(#g496)"/><ellipse cx="180" cy="162" rx="16" ry="4" fill="#3b2a1a" opacity="0.18" filter="url(#blur)"/><path d="M175 142 L176 160 L184 160 L185 142Z" fill="#cfe0a8"/><circle cx="171" cy="138" r="9" fill="url(#g496)"/><circle cx="180" cy="131" r="10" fill="url(#g496)"/><circle cx="189" cy="138" r="9" fill="url(#g496)"/><circle cx="180" cy="142" r="9" fill="url(#g496)"/></svg>