<svg xmlns="http://www.w3.org/2000/svg" viewBox="14 34 212 212"><defs><filter id="blur" x="-30%" y="-30%" width="160%" height="160%"><feGaussianBlur stdDeviation="3"/></filter><linearGradient id="l336" x1="0" y1="0" x2="0" y2="1"><stop offset="0" stop-color="#ffffff"/><stop offset="1" stop-color="#e7ecf2"/></linearGradient><linearGradient id="l337" x1="0" y1="0" x2="0" y2="1"><stop offset="0" stop-color="#f3f6f9"/><stop offset="1" stop-color="#ffffff"/></linearGradient><radialGradient id="g338" cx="35%" cy="30%" r="80%"><stop offset="0" stop-color="#fffaf0"/><stop offset=".55" stop-color="#fbefd2"/><stop offset="1" stop-color="#eedcae"/></radialGradient></defs><rect width="240" height="240" fill="#FFF6E8"/><ellipse cx="120" cy="140" rx="98" ry="74.1" fill="#3b2a1a" opacity="0.2" filter="url(#blur)"/><ellipse cx="120" cy="132" rx="100" ry="78" fill="url(#l336)"/><ellipse cx="120" cy="134" rx="78" ry="59.28" fill="url(#l337)" stroke="#dfe5ec" stroke-width="1.5"/><ellipse cx="122" cy="168" rx="58" ry="9" fill="#3b2a1a" opacity="0.18" filter="url(#blur)"/><path d="M74 168 L74 102 Q74 70 120 68 Q166 70 166 102 L166 168 Z" fill="#b8742c"/><path d="M82 162 L82 104 Q82 80 120 78 Q158 80 158 104 L158 162 Z" fill="url(#g338)"/><circle cx="118.8" cy="129.3" r="1.3" fill="#ffffff"/><circle cx="119.7" cy="126.0" r="1.2" fill="#ffffff"/><circle cx="132.1" cy="140.0" r="2.3" fill="#ffffff"/><circle cx="135.3" cy="145.2" r="1.2" fill="#ffffff"/><circle cx="110.6" cy="131.4" r="1.2" fill="#ffffff"/><circle cx="116.6" cy="94.8" r="2.2" fill="#ffffff"/><circle cx="106.1" cy="142.7" r="1.9" fill="#ffffff"/><circle cx="132.6" cy="136.5" r="1.3" fill="#ffffff"/><circle cx="111.6" cy="127.0" r="1.1" fill="#ffffff"/><circle cx="122.8" cy="120.4" r="1.0" fill="#ffffff"/><circle cx="115.7" cy="127.5" r="2.3" fill="#ffffff"/><circle cx="127.2" cy="143.5" r="1.2" fill="#ffffff"/><circle cx="110.7" cy="89.4" r="1.2" fill="#ffffff"/><circle cx="122.7" cy="102.3" r="1.6" fill="#ffffff"/><circle cx="139.0" cy="98.5" r="2.0" fill="#ffffff"/><circle cx="140.6" cy="132.4" r="1.6" fill="#ffffff"/><circle cx="130.7" cy="149.2" r="2.2" fill="#ffffff"/><circle cx="95.3" cy="108.4" r="1.4" fill="#ffffff"/><circle cx="139.4" cy="110.5" r="1.0" fill="#ffffff"/><circle cx="121.2" cy="147.9" r="1.1" fill="#ffffff"/></svg>