<svg xmlns="http://www.w3.org/2000/svg" viewBox="14 34 212 212"><defs><filter id="blur" x="-30%" y="-30%" width="160%" height="160%"><feGaussianBlur stdDeviation="3"/></filter><linearGradient id="l228" x1="0" y1="0" x2="1" y2="0"><stop offset="0" stop-color="#3a1a0c"/><stop offset="1" stop-color="#1c0b04"/></linearGradient><radialGradient id="g229" cx="35%" cy="30%" r="80%"><stop offset="0" stop-color="#7a3c18"/><stop offset=".55" stop-color="#4a200a"/><stop offset="1" stop-color="#2a1004"/></radialGradient></defs><rect width="240" height="240" fill="#FFF6E8"/><ellipse cx="78" cy="196" rx="24" ry="6" fill="#3b2a1a" opacity="0.22" filter="url(#blur)"/><path d="M64 88 L64 66 Q64 56 72 54 L72 44 L84 44 L84 54 Q92 56 92 66 L92 88 Q96 96 96 108 L96 200 Q96 206 90 206 L66 206 Q60 206 60 200 L60 108 Q60 96 64 88Z" fill="url(#l228)"/><rect x="70" y="44" width="16" height="8" rx="2" fill="#c9a43a"/><path d="M68 112 L68 194" stroke="#ffffff" stroke-width="4" opacity=".25"/><ellipse cx="162" cy="196" rx="35.2" ry="8" fill="#3b2a1a" opacity="0.22" filter="url(#blur)"/><path d="M130 86 L137 192 Q162 200 187 192 L194 86 Z" fill="#ffffff" opacity=".55" stroke="#c9d6e2" stroke-width="2"/><path d="M133 108 L139 190 Q162 197 185 190 L191 108 Z" fill="url(#g229)"/><ellipse cx="162" cy="108" rx="29" ry="5" fill="#ffffff" opacity=".35"/><path d="M139 94 L144 182" stroke="#ffffff" stroke-width="4" opacity=".55" stroke-linecap="round"/></svg>