<svg xmlns="http://www.w3.org/2000/svg" viewBox="14 34 212 212"><defs><filter id="blur" x="-30%" y="-30%" width="160%" height="160%"><feGaussianBlur stdDeviation="3"/></filter><linearGradient id="l242" x1="0" y1="0" x2="0" y2="1"><stop offset="0" stop-color="#ffffff"/><stop offset="1" stop-color="#e7ecf2"/></linearGradient><linearGradient id="l243" x1="0" y1="0" x2="0" y2="1"><stop offset="0" stop-color="#f3f6f9"/><stop offset="1" stop-color="#ffffff"/></linearGradient><radialGradient id="g244" cx="35%" cy="30%" r="80%"><stop offset="0" stop-color="#e8c070"/><stop offset=".55" stop-color="#b8822e"/><stop offset="1" stop-color="#7a4a14"/></radialGradient><radialGradient id="g245" cx="35%" cy="30%" r="80%"><stop offset="0" stop-color="#e8c070"/><stop offset=".55" stop-color="#b8822e"/><stop offset="1" stop-color="#7a4a14"/></radialGradient><radialGradient id="g246" cx="35%" cy="30%" r="80%"><stop offset="0" stop-color="#e8c070"/><stop offset=".55" stop-color="#b8822e"/><stop offset="1" stop-color="#7a4a14"/></radialGradient></defs><rect width="240" height="240" fill="#FFF6E8"/><ellipse cx="120" cy="140" rx="98" ry="74.1" fill="#3b2a1a" opacity="0.2" filter="url(#blur)"/><ellipse cx="120" cy="132" rx="100" ry="78" fill="url(#l242)"/><ellipse cx="120" cy="134" rx="78" ry="59.28" fill="url(#l243)" stroke="#dfe5ec" stroke-width="1.5"/><ellipse cx="86" cy="154" rx="26" ry="6" fill="#3b2a1a" opacity="0.18" filter="url(#blur)"/><path d="M60 138 Q56 114 80 112 Q104 108 112 130 Q116 152 90 154 Q66 158 60 138Z" fill="url(#g244)"/><circle cx="84.4" cy="144.2" r="1.7" fill="#f6e4b0"/><circle cx="74.5" cy="125.5" r="1.5" fill="#f6e4b0"/><circle cx="94.9" cy="122.0" r="1.1" fill="#f6e4b0"/><circle cx="88.7" cy="137.9" r="1.6" fill="#f6e4b0"/><circle cx="86.3" cy="131.6" r="1.2" fill="#f6e4b0"/><circle cx="92.3" cy="121.0" r="1.6" fill="#f6e4b0"/><circle cx="84.0" cy="144.6" r="2.0" fill="#f6e4b0"/><circle cx="83.5" cy="133.2" r="2.2" fill="#f6e4b0"/><circle cx="73.1" cy="140.2" r="2.1" fill="#f6e4b0"/><circle cx="95.7" cy="133.1" r="1.6" fill="#f6e4b0"/><circle cx="78.2" cy="141.4" r="1.5" fill="#f6e4b0"/><circle cx="99.5" cy="126.0" r="1.5" fill="#f6e4b0"/><circle cx="98.7" cy="144.2" r="2.0" fill="#f6e4b0"/><circle cx="81.9" cy="146.4" r="1.2" fill="#f6e4b0"/><circle cx="78.4" cy="140.2" r="1.4" fill="#f6e4b0"/><circle cx="101.4" cy="141.1" r="1.9" fill="#f6e4b0"/><ellipse cx="152" cy="150" rx="26" ry="6" fill="#3b2a1a" opacity="0.18" filter="url(#blur)"/><path d="M126 134 Q122 110 146 108 Q170 104 178 126 Q182 148 156 150 Q132 154 126 134Z" fill="url(#g245)"/><circle cx="150.3" cy="141.0" r="1.2" fill="#f6e4b0"/><circle cx="145.9" cy="122.7" r="1.1" fill="#f6e4b0"/><circle cx="151.1" cy="142.9" r="1.8" fill="#f6e4b0"/><circle cx="153.4" cy="140.3" r="1.1" fill="#f6e4b0"/><circle cx="150.7" cy="116.2" r="1.5" fill="#f6e4b0"/><circle cx="151.2" cy="134.7" r="1.6" fill="#f6e4b0"/><circle cx="139.5" cy="125.9" r="1.5" fill="#f6e4b0"/><circle cx="163.3" cy="138.5" r="0.9" fill="#f6e4b0"/><circle cx="147.5" cy="129.6" r="1.6" fill="#f6e4b0"/><circle cx="151.9" cy="126.8" r="1.0" fill="#f6e4b0"/><circle cx="166.2" cy="126.0" r="1.4" fill="#f6e4b0"/><circle cx="143.6" cy="130.2" r="1.4" fill="#f6e4b0"/><circle cx="169.4" cy="129.4" r="1.9" fill="#f6e4b0"/><circle cx="138.4" cy="134.3" r="1.0" fill="#f6e4b0"/><circle cx="168.7" cy="123.7" r="0.8" fill="#f6e4b0"/><circle cx="160.4" cy="133.8" r="1.6" fill="#f6e4b0"/><ellipse cx="118" cy="118" rx="26" ry="6" fill="#3b2a1a" opacity="0.18" filter="url(#blur)"/><path d="M92 102 Q88 78 112 76 Q136 72 144 94 Q148 116 122 118 Q98 122 92 102Z" fill="url(#g246)"/><circle cx="116.1" cy="109.8" r="2.2" fill="#f6e4b0"/><circle cx="116.9" cy="95.5" r="2.1" fill="#f6e4b0"/><circle cx="111.4" cy="86.7" r="1.2" fill="#f6e4b0"/><circle cx="117.8" cy="98.6" r="2.1" fill="#f6e4b0"/><circle cx="114.0" cy="84.8" r="1.9" fill="#f6e4b0"/><circle cx="117.0" cy="90.8" r="1.6" fill="#f6e4b0"/><circle cx="126.1" cy="91.8" r="1.1" fill="#f6e4b0"/><circle cx="113.8" cy="90.1" r="1.0" fill="#f6e4b0"/><circle cx="109.0" cy="90.5" r="1.0" fill="#f6e4b0"/><circle cx="99.5" cy="97.0" r="1.9" fill="#f6e4b0"/><circle cx="101.0" cy="96.0" r="1.3" fill="#f6e4b0"/><circle cx="130.2" cy="104.3" r="1.2" fill="#f6e4b0"/><circle cx="126.8" cy="89.3" r="1.7" fill="#f6e4b0"/><circle cx="108.5" cy="94.4" r="0.9" fill="#f6e4b0"/><circle cx="104.6" cy="99.1" r="1.7" fill="#f6e4b0"/><circle cx="131.5" cy="104.1" r="1.2" fill="#f6e4b0"/></svg>