<svg xmlns="http://www.w3.org/2000/svg" viewBox="14 34 212 212"><defs><filter id="blur" x="-30%" y="-30%" width="160%" height="160%"><feGaussianBlur stdDeviation="3"/></filter><linearGradient id="l251" x1="0" y1="0" x2="0" y2="1"><stop offset="0" stop-color="#ffffff"/><stop offset="1" stop-color="#e7ecf2"/></linearGradient><linearGradient id="l252" x1="0" y1="0" x2="0" y2="1"><stop offset="0" stop-color="#f3f6f9"/><stop offset="1" stop-color="#ffffff"/></linearGradient><radialGradient id="g253" cx="35%" cy="30%" r="80%"><stop offset="0" stop-color="#7d7258"/><stop offset=".55" stop-color="#3e3628"/><stop offset="1" stop-color="#16130d"/></radialGradient><radialGradient id="g254" cx="35%" cy="30%" r="80%"><stop offset="0" stop-color="#7d7258"/><stop offset=".55" stop-color="#3e3628"/><stop offset="1" stop-color="#16130d"/></radialGradient><radialGradient id="g255" cx="35%" cy="30%" r="80%"><stop offset="0" stop-color="#7d7258"/><stop offset=".55" stop-color="#3e3628"/><stop offset="1" stop-color="#16130d"/></radialGradient><radialGradient id="g256" cx="35%" cy="30%" r="80%"><stop offset="0" stop-color="#7d7258"/><stop offset=".55" stop-color="#3e3628"/><stop offset="1" stop-color="#16130d"/></radialGradient><radialGradient id="g257" cx="35%" cy="30%" r="80%"><stop offset="0" stop-color="#7d7258"/><stop offset=".55" stop-color="#3e3628"/><stop offset="1" stop-color="#16130d"/></radialGradient><radialGradient id="g258" cx="35%" cy="30%" r="80%"><stop offset="0" stop-color="#7d7258"/><stop offset=".55" stop-color="#3e3628"/><stop offset="1" stop-color="#16130d"/></radialGradient><radialGradient id="g259" cx="35%" cy="30%" r="80%"><stop offset="0" stop-color="#7d7258"/><stop offset=".55" stop-color="#3e3628"/><stop offset="1" stop-color="#16130d"/></radialGradient><radialGradient id="g260" cx="35%" cy="30%" r="80%"><stop offset="0" stop-color="#7d7258"/><stop offset=".55" stop-color="#3e3628"/><stop offset="1" stop-color="#16130d"/></radialGradient><radialGradient id="g261" cx="35%" cy="30%" r="80%"><stop offset="0" stop-color="#7d7258"/><stop offset=".55" stop-color="#3e3628"/><stop offset="1" stop-color="#16130d"/></radialGradient><radialGradient id="g262" cx="35%" cy="30%" r="80%"><stop offset="0" stop-color="#7d7258"/><stop offset=".55" stop-color="#3e3628"/><stop offset="1" stop-color="#16130d"/></radialGradient><radialGradient id="g263" cx="35%" cy="30%" r="80%"><stop offset="0" stop-color="#7d7258"/><stop offset=".55" stop-color="#3e3628"/><stop offset="1" stop-color="#16130d"/></radialGradient><radialGradient id="g264" cx="35%" cy="30%" r="80%"><stop offset="0" stop-color="#7d7258"/><stop offset=".55" stop-color="#3e3628"/><stop offset="1" stop-color="#16130d"/></radialGradient><radialGradient id="g265" cx="35%" cy="30%" r="80%"><stop offset="0" stop-color="#7d7258"/><stop offset=".55" stop-color="#3e3628"/><stop offset="1" stop-color="#16130d"/></radialGradient><radialGradient id="g266" cx="35%" cy="30%" r="80%"><stop offset="0" stop-color="#7d7258"/><stop offset=".55" stop-color="#3e3628"/><stop offset="1" stop-color="#16130d"/></radialGradient><radialGradient id="g267" cx="35%" cy="30%" r="80%"><stop offset="0" stop-color="#7d7258"/><stop offset=".55" stop-color="#3e3628"/><stop offset="1" stop-color="#16130d"/></radialGradient></defs><rect width="240" height="240" fill="#FFF6E8"/><ellipse cx="120" cy="140" rx="98" ry="74.1" fill="#3b2a1a" opacity="0.2" filter="url(#blur)"/><ellipse cx="120" cy="132" rx="100" ry="78" fill="url(#l251)"/><ellipse cx="120" cy="134" rx="78" ry="59.28" fill="url(#l252)" stroke="#dfe5ec" stroke-width="1.5"/><g transform="rotate(21.95079134311527 121.54650092411725 174.67701988358343)"><ellipse cx="121.54650092411725" cy="183.67701988358343" rx="9" ry="3" fill="#3b2a1a" opacity="0.18" filter="url(#blur)"/><path d="M113.54650092411725 182.67701988358343 Q115.54650092411725 170.67701988358343 121.54650092411725 158.67701988358343 Q127.54650092411725 170.67701988358343 129.54650092411725 182.67701988358343 Q121.54650092411725 186.67701988358343 113.54650092411725 182.67701988358343Z" fill="url(#g253)"/><path d="M114.54650092411725 177.67701988358343 Q121.54650092411725 180.67701988358343 128.54650092411725 175.67701988358343 M116.54650092411725 171.67701988358343 Q121.54650092411725 174.67701988358343 126.54650092411725 169.67701988358343 M118.54650092411725 165.67701988358343 Q121.54650092411725 167.67701988358343 124.54650092411725 164.67701988358343" stroke="#c9b98f" stroke-width="1.3" fill="none"/><ellipse cx="121.54650092411725" cy="182.67701988358343" rx="4" ry="2.4" fill="#d8cdb0"/></g><g transform="rotate(9.123978498391807 115.30236323657041 116.41587982242768)"><ellipse cx="115.30236323657041" cy="125.41587982242768" rx="9" ry="3" fill="#3b2a1a" opacity="0.18" filter="url(#blur)"/><path d="M107.30236323657041 124.41587982242768 Q109.30236323657041 112.41587982242768 115.30236323657041 100.41587982242768 Q121.30236323657041 112.41587982242768 123.30236323657041 124.41587982242768 Q115.30236323657041 128.41587982242768 107.30236323657041 124.41587982242768Z" fill="url(#g254)"/><path d="M108.30236323657041 119.41587982242768 Q115.30236323657041 122.41587982242768 122.30236323657041 117.41587982242768 M110.30236323657041 113.41587982242768 Q115.30236323657041 116.41587982242768 120.30236323657041 111.41587982242768 M112.30236323657041 107.41587982242768 Q115.30236323657041 109.41587982242768 118.30236323657041 106.41587982242768" stroke="#c9b98f" stroke-width="1.3" fill="none"/><ellipse cx="115.30236323657041" cy="124.41587982242768" rx="4" ry="2.4" fill="#d8cdb0"/></g><g transform="rotate(-87.80019444879144 70.96612495354233 107.11477446342954)"><ellipse cx="70.96612495354233" cy="116.11477446342954" rx="9" ry="3" fill="#3b2a1a" opacity="0.18" filter="url(#blur)"/><path d="M62.966124953542334 115.11477446342954 Q64.96612495354233 103.11477446342954 70.96612495354233 91.11477446342954 Q76.96612495354233 103.11477446342954 78.96612495354233 115.11477446342954 Q70.96612495354233 119.11477446342954 62.966124953542334 115.11477446342954Z" fill="url(#g255)"/><path d="M63.966124953542334 110.11477446342954 Q70.96612495354233 113.11477446342954 77.96612495354233 108.11477446342954 M65.96612495354233 104.11477446342954 Q70.96612495354233 107.11477446342954 75.96612495354233 102.11477446342954 M67.96612495354233 98.11477446342954 Q70.96612495354233 100.11477446342954 73.96612495354233 97.11477446342954" stroke="#c9b98f" stroke-width="1.3" fill="none"/><ellipse cx="70.96612495354233" cy="115.11477446342954" rx="4" ry="2.4" fill="#d8cdb0"/></g><g transform="rotate(34.153632265515625 179.6551546180177 114.44309938306937)"><ellipse cx="179.6551546180177" cy="123.44309938306937" rx="9" ry="3" fill="#3b2a1a" opacity="0.18" filter="url(#blur)"/><path d="M171.6551546180177 122.44309938306937 Q173.6551546180177 110.44309938306937 179.6551546180177 98.44309938306937 Q185.6551546180177 110.44309938306937 187.6551546180177 122.44309938306937 Q179.6551546180177 126.44309938306937 171.6551546180177 122.44309938306937Z" fill="url(#g256)"/><path d="M172.6551546180177 117.44309938306937 Q179.6551546180177 120.44309938306937 186.6551546180177 115.44309938306937 M174.6551546180177 111.44309938306937 Q179.6551546180177 114.44309938306937 184.6551546180177 109.44309938306937 M176.6551546180177 105.44309938306937 Q179.6551546180177 107.44309938306937 182.6551546180177 104.44309938306937" stroke="#c9b98f" stroke-width="1.3" fill="none"/><ellipse cx="179.6551546180177" cy="122.44309938306937" rx="4" ry="2.4" fill="#d8cdb0"/></g><g transform="rotate(-1.2390086939558387 160.3140415483977 167.44203641449622)"><ellipse cx="160.3140415483977" cy="176.44203641449622" rx="9" ry="3" fill="#3b2a1a" opacity="0.18" filter="url(#blur)"/><path d="M152.3140415483977 175.44203641449622 Q154.3140415483977 163.44203641449622 160.3140415483977 151.44203641449622 Q166.3140415483977 163.44203641449622 168.3140415483977 175.44203641449622 Q160.3140415483977 179.44203641449622 152.3140415483977 175.44203641449622Z" fill="url(#g257)"/><path d="M153.3140415483977 170.44203641449622 Q160.3140415483977 173.44203641449622 167.3140415483977 168.44203641449622 M155.3140415483977 164.44203641449622 Q160.3140415483977 167.44203641449622 165.3140415483977 162.44203641449622 M157.3140415483977 158.44203641449622 Q160.3140415483977 160.44203641449622 163.3140415483977 157.44203641449622" stroke="#c9b98f" stroke-width="1.3" fill="none"/><ellipse cx="160.3140415483977" cy="175.44203641449622" rx="4" ry="2.4" fill="#d8cdb0"/></g><g transform="rotate(11.891156709752977 183.7326019679004 149.22524771020153)"><ellipse cx="183.7326019679004" cy="158.22524771020153" rx="9" ry="3" fill="#3b2a1a" opacity="0.18" filter="url(#blur)"/><path d="M175.7326019679004 157.22524771020153 Q177.7326019679004 145.22524771020153 183.7326019679004 133.22524771020153 Q189.7326019679004 145.22524771020153 191.7326019679004 157.22524771020153 Q183.7326019679004 161.22524771020153 175.7326019679004 157.22524771020153Z" fill="url(#g258)"/><path d="M176.7326019679004 152.22524771020153 Q183.7326019679004 155.22524771020153 190.7326019679004 150.22524771020153 M178.7326019679004 146.22524771020153 Q183.7326019679004 149.22524771020153 188.7326019679004 144.22524771020153 M180.7326019679004 140.22524771020153 Q183.7326019679004 142.22524771020153 186.7326019679004 139.22524771020153" stroke="#c9b98f" stroke-width="1.3" fill="none"/><ellipse cx="183.7326019679004" cy="157.22524771020153" rx="4" ry="2.4" fill="#d8cdb0"/></g><g transform="rotate(-31.87180815730244 93.76793513587964 140.55625004224189)"><ellipse cx="93.76793513587964" cy="149.55625004224189" rx="9" ry="3" fill="#3b2a1a" opacity="0.18" filter="url(#blur)"/><path d="M85.76793513587964 148.55625004224189 Q87.76793513587964 136.55625004224189 93.76793513587964 124.55625004224189 Q99.76793513587964 136.55625004224189 101.76793513587964 148.55625004224189 Q93.76793513587964 152.55625004224189 85.76793513587964 148.55625004224189Z" fill="url(#g259)"/><path d="M86.76793513587964 143.55625004224189 Q93.76793513587964 146.55625004224189 100.76793513587964 141.55625004224189 M88.76793513587964 137.55625004224189 Q93.76793513587964 140.55625004224189 98.76793513587964 135.55625004224189 M90.76793513587964 131.55625004224189 Q93.76793513587964 133.55625004224189 96.76793513587964 130.55625004224189" stroke="#c9b98f" stroke-width="1.3" fill="none"/><ellipse cx="93.76793513587964" cy="148.55625004224189" rx="4" ry="2.4" fill="#d8cdb0"/></g><g transform="rotate(-83.0197937367484 61.050258118080876 153.73163265906805)"><ellipse cx="61.050258118080876" cy="162.73163265906805" rx="9" ry="3" fill="#3b2a1a" opacity="0.18" filter="url(#blur)"/><path d="M53.050258118080876 161.73163265906805 Q55.050258118080876 149.73163265906805 61.050258118080876 137.73163265906805 Q67.05025811808088 149.73163265906805 69.05025811808088 161.73163265906805 Q61.050258118080876 165.73163265906805 53.050258118080876 161.73163265906805Z" fill="url(#g260)"/><path d="M54.050258118080876 156.73163265906805 Q61.050258118080876 159.73163265906805 68.05025811808088 154.73163265906805 M56.050258118080876 150.73163265906805 Q61.050258118080876 153.73163265906805 66.05025811808088 148.73163265906805 M58.050258118080876 144.73163265906805 Q61.050258118080876 146.73163265906805 64.05025811808088 143.73163265906805" stroke="#c9b98f" stroke-width="1.3" fill="none"/><ellipse cx="61.050258118080876" cy="161.73163265906805" rx="4" ry="2.4" fill="#d8cdb0"/></g><g transform="rotate(33.15984272863716 97.55703315038485 91.43154054786442)"><ellipse cx="97.55703315038485" cy="100.43154054786442" rx="9" ry="3" fill="#3b2a1a" opacity="0.18" filter="url(#blur)"/><path d="M89.55703315038485 99.43154054786442 Q91.55703315038485 87.43154054786442 97.55703315038485 75.43154054786442 Q103.55703315038485 87.43154054786442 105.55703315038485 99.43154054786442 Q97.55703315038485 103.43154054786442 89.55703315038485 99.43154054786442Z" fill="url(#g261)"/><path d="M90.55703315038485 94.43154054786442 Q97.55703315038485 97.43154054786442 104.55703315038485 92.43154054786442 M92.55703315038485 88.43154054786442 Q97.55703315038485 91.43154054786442 102.55703315038485 86.43154054786442 M94.55703315038485 82.43154054786442 Q97.55703315038485 84.43154054786442 100.55703315038485 81.43154054786442" stroke="#c9b98f" stroke-width="1.3" fill="none"/><ellipse cx="97.55703315038485" cy="99.43154054786442" rx="4" ry="2.4" fill="#d8cdb0"/></g><g transform="rotate(82.53295268397778 132.4052383923316 144.78157723240568)"><ellipse cx="132.4052383923316" cy="153.78157723240568" rx="9" ry="3" fill="#3b2a1a" opacity="0.18" filter="url(#blur)"/><path d="M124.4052383923316 152.78157723240568 Q126.4052383923316 140.78157723240568 132.4052383923316 128.78157723240568 Q138.4052383923316 140.78157723240568 140.4052383923316 152.78157723240568 Q132.4052383923316 156.78157723240568 124.4052383923316 152.78157723240568Z" fill="url(#g262)"/><path d="M125.4052383923316 147.78157723240568 Q132.4052383923316 150.78157723240568 139.4052383923316 145.78157723240568 M127.4052383923316 141.78157723240568 Q132.4052383923316 144.78157723240568 137.4052383923316 139.78157723240568 M129.4052383923316 135.78157723240568 Q132.4052383923316 137.78157723240568 135.4052383923316 134.78157723240568" stroke="#c9b98f" stroke-width="1.3" fill="none"/><ellipse cx="132.4052383923316" cy="152.78157723240568" rx="4" ry="2.4" fill="#d8cdb0"/></g><g transform="rotate(-45.105267190374434 151.25309942440276 122.05312056477345)"><ellipse cx="151.25309942440276" cy="131.05312056477345" rx="9" ry="3" fill="#3b2a1a" opacity="0.18" filter="url(#blur)"/><path d="M143.25309942440276 130.05312056477345 Q145.25309942440276 118.05312056477345 151.25309942440276 106.05312056477345 Q157.25309942440276 118.05312056477345 159.25309942440276 130.05312056477345 Q151.25309942440276 134.05312056477345 143.25309942440276 130.05312056477345Z" fill="url(#g263)"/><path d="M144.25309942440276 125.05312056477345 Q151.25309942440276 128.05312056477345 158.25309942440276 123.05312056477345 M146.25309942440276 119.05312056477345 Q151.25309942440276 122.05312056477345 156.25309942440276 117.05312056477345 M148.25309942440276 113.05312056477345 Q151.25309942440276 115.05312056477345 154.25309942440276 112.05312056477345" stroke="#c9b98f" stroke-width="1.3" fill="none"/><ellipse cx="151.25309942440276" cy="130.05312056477345" rx="4" ry="2.4" fill="#d8cdb0"/></g><g transform="rotate(-89.01897304225713 155.75739311220113 84.15015926448585)"><ellipse cx="155.75739311220113" cy="93.15015926448585" rx="9" ry="3" fill="#3b2a1a" opacity="0.18" filter="url(#blur)"/><path d="M147.75739311220113 92.15015926448585 Q149.75739311220113 80.15015926448585 155.75739311220113 68.15015926448585 Q161.75739311220113 80.15015926448585 163.75739311220113 92.15015926448585 Q155.75739311220113 96.15015926448585 147.75739311220113 92.15015926448585Z" fill="url(#g264)"/><path d="M148.75739311220113 87.15015926448585 Q155.75739311220113 90.15015926448585 162.75739311220113 85.15015926448585 M150.75739311220113 81.15015926448585 Q155.75739311220113 84.15015926448585 160.75739311220113 79.15015926448585 M152.75739311220113 75.15015926448585 Q155.75739311220113 77.15015926448585 158.75739311220113 74.15015926448585" stroke="#c9b98f" stroke-width="1.3" fill="none"/><ellipse cx="155.75739311220113" cy="92.15015926448585" rx="4" ry="2.4" fill="#d8cdb0"/></g><g transform="rotate(-51.50305343326181 41.85719702573459 124.72403500805443)"><ellipse cx="41.85719702573459" cy="133.72403500805444" rx="9" ry="3" fill="#3b2a1a" opacity="0.18" filter="url(#blur)"/><path d="M33.85719702573459 132.72403500805444 Q35.85719702573459 120.72403500805443 41.85719702573459 108.72403500805443 Q47.85719702573459 120.72403500805443 49.85719702573459 132.72403500805444 Q41.85719702573459 136.72403500805444 33.85719702573459 132.72403500805444Z" fill="url(#g265)"/><path d="M34.85719702573459 127.72403500805443 Q41.85719702573459 130.72403500805444 48.85719702573459 125.72403500805443 M36.85719702573459 121.72403500805443 Q41.85719702573459 124.72403500805443 46.85719702573459 119.72403500805443 M38.85719702573459 115.72403500805443 Q41.85719702573459 117.72403500805443 44.85719702573459 114.72403500805443" stroke="#c9b98f" stroke-width="1.3" fill="none"/><ellipse cx="41.85719702573459" cy="132.72403500805444" rx="4" ry="2.4" fill="#d8cdb0"/></g><g transform="rotate(15.282023032195866 83.55515873719118 171.051064536523)"><ellipse cx="83.55515873719118" cy="180.051064536523" rx="9" ry="3" fill="#3b2a1a" opacity="0.18" filter="url(#blur)"/><path d="M75.55515873719118 179.051064536523 Q77.55515873719118 167.051064536523 83.55515873719118 155.051064536523 Q89.55515873719118 167.051064536523 91.55515873719118 179.051064536523 Q83.55515873719118 183.051064536523 75.55515873719118 179.051064536523Z" fill="url(#g266)"/><path d="M76.55515873719118 174.051064536523 Q83.55515873719118 177.051064536523 90.55515873719118 172.051064536523 M78.55515873719118 168.051064536523 Q83.55515873719118 171.051064536523 88.55515873719118 166.051064536523 M80.55515873719118 162.051064536523 Q83.55515873719118 164.051064536523 86.55515873719118 161.051064536523" stroke="#c9b98f" stroke-width="1.3" fill="none"/><ellipse cx="83.55515873719118" cy="179.051064536523" rx="4" ry="2.4" fill="#d8cdb0"/></g><g transform="rotate(-16.6651743510738 126.65728572063252 78.41168886082318)"><ellipse cx="126.65728572063252" cy="87.41168886082318" rx="9" ry="3" fill="#3b2a1a" opacity="0.18" filter="url(#blur)"/><path d="M118.65728572063252 86.41168886082318 Q120.65728572063252 74.41168886082318 126.65728572063252 62.411688860823176 Q132.6572857206325 74.41168886082318 134.6572857206325 86.41168886082318 Q126.65728572063252 90.41168886082318 118.65728572063252 86.41168886082318Z" fill="url(#g267)"/><path d="M119.65728572063252 81.41168886082318 Q126.65728572063252 84.41168886082318 133.6572857206325 79.41168886082318 M121.65728572063252 75.41168886082318 Q126.65728572063252 78.41168886082318 131.6572857206325 73.41168886082318 M123.65728572063252 69.41168886082318 Q126.65728572063252 71.41168886082318 129.6572857206325 68.41168886082318" stroke="#c9b98f" stroke-width="1.3" fill="none"/><ellipse cx="126.65728572063252" cy="86.41168886082318" rx="4" ry="2.4" fill="#d8cdb0"/></g></svg>