<svg xmlns="http://www.w3.org/2000/svg" viewBox="14 34 212 212"><defs><filter id="blur" x="-30%" y="-30%" width="160%" height="160%"><feGaussianBlur stdDeviation="3"/></filter><linearGradient id="l65" x1="0" y1="0" x2="0" y2="1"><stop offset="0" stop-color="#ffffff"/><stop offset="1" stop-color="#e7ecf2"/></linearGradient><linearGradient id="l66" x1="0" y1="0" x2="0" y2="1"><stop offset="0" stop-color="#f3f6f9"/><stop offset="1" stop-color="#ffffff"/></linearGradient><radialGradient id="g67" cx="35%" cy="30%" r="80%"><stop offset="0" stop-color="#ffb48a"/><stop offset=".55" stop-color="#f2743c"/><stop offset="1" stop-color="#b8401a"/></radialGradient><radialGradient id="g68" cx="35%" cy="30%" r="80%"><stop offset="0" stop-color="#ffb48a"/><stop offset=".55" stop-color="#f2743c"/><stop offset="1" stop-color="#b8401a"/></radialGradient><radialGradient id="g69" cx="35%" cy="30%" r="80%"><stop offset="0" stop-color="#ffb48a"/><stop offset=".55" stop-color="#f2743c"/><stop offset="1" stop-color="#b8401a"/></radialGradient><radialGradient id="g70" cx="35%" cy="30%" r="80%"><stop offset="0" stop-color="#ffb48a"/><stop offset=".55" stop-color="#f2743c"/><stop offset="1" stop-color="#b8401a"/></radialGradient><radialGradient id="g71" cx="35%" cy="30%" r="80%"><stop offset="0" stop-color="#ffb48a"/><stop offset=".55" stop-color="#f2743c"/><stop offset="1" stop-color="#b8401a"/></radialGradient><radialGradient id="g72" cx="35%" cy="30%" r="80%"><stop offset="0" stop-color="#ffb48a"/><stop offset=".55" stop-color="#f2743c"/><stop offset="1" stop-color="#b8401a"/></radialGradient><radialGradient id="g73" cx="35%" cy="30%" r="80%"><stop offset="0" stop-color="#ffb48a"/><stop offset=".55" stop-color="#f2743c"/><stop offset="1" stop-color="#b8401a"/></radialGradient><radialGradient id="g74" cx="35%" cy="30%" r="80%"><stop offset="0" stop-color="#ffb48a"/><stop offset=".55" stop-color="#f2743c"/><stop offset="1" stop-color="#b8401a"/></radialGradient><radialGradient id="g75" cx="35%" cy="30%" r="80%"><stop offset="0" stop-color="#ffb48a"/><stop offset=".55" stop-color="#f2743c"/><stop offset="1" stop-color="#b8401a"/></radialGradient><radialGradient id="g76" cx="35%" cy="30%" r="80%"><stop offset="0" stop-color="#ffb48a"/><stop offset=".55" stop-color="#f2743c"/><stop offset="1" stop-color="#b8401a"/></radialGradient></defs><rect width="240" height="240" fill="#FFF6E8"/><ellipse cx="120" cy="140" rx="98" ry="74.1" fill="#3b2a1a" opacity="0.2" filter="url(#blur)"/><ellipse cx="120" cy="132" rx="100" ry="78" fill="url(#l65)"/><ellipse cx="120" cy="134" rx="78" ry="59.28" fill="url(#l66)" stroke="#dfe5ec" stroke-width="1.5"/><g transform="rotate(-26.761543974280357 122.1063616719534 154.13530994555435)"><ellipse cx="122.1063616719534" cy="162.13530994555435" rx="12" ry="3" fill="#3b2a1a" opacity="0.18" filter="url(#blur)"/><path d="M110.1063616719534 158.13530994555435 Q108.1063616719534 142.13530994555435 124.1063616719534 142.13530994555435 Q136.10636167195338 144.13530994555435 134.10636167195338 156.13530994555435 Q126.1063616719534 152.13530994555435 118.1063616719534 160.13530994555435 Z" fill="url(#g67)"/><path d="M116.1063616719534 145.13530994555435 q2 6 0 12 M123.1063616719534 143.13530994555435 q2 6 0 10" stroke="#fff1e6" stroke-width="1.2" fill="none"/></g><g transform="rotate(-74.67600865289569 106.82936364572204 88.68173608531015)"><ellipse cx="106.82936364572204" cy="96.68173608531015" rx="12" ry="3" fill="#3b2a1a" opacity="0.18" filter="url(#blur)"/><path d="M94.82936364572204 92.68173608531015 Q92.82936364572204 76.68173608531015 108.82936364572204 76.68173608531015 Q120.82936364572204 78.68173608531015 118.82936364572204 90.68173608531015 Q110.82936364572204 86.68173608531015 102.82936364572204 94.68173608531015 Z" fill="url(#g68)"/><path d="M100.82936364572204 79.68173608531015 q2 6 0 12 M107.82936364572204 77.68173608531015 q2 6 0 10" stroke="#fff1e6" stroke-width="1.2" fill="none"/></g><g transform="rotate(-19.362740898504853 67.47664358427917 125.76221735346914)"><ellipse cx="67.47664358427917" cy="133.76221735346914" rx="12" ry="3" fill="#3b2a1a" opacity="0.18" filter="url(#blur)"/><path d="M55.476643584279174 129.76221735346914 Q53.476643584279174 113.76221735346914 69.47664358427917 113.76221735346914 Q81.47664358427917 115.76221735346914 79.47664358427917 127.76221735346914 Q71.47664358427917 123.76221735346914 63.476643584279174 131.76221735346914 Z" fill="url(#g69)"/><path d="M61.476643584279174 116.76221735346914 q2 6 0 12 M68.47664358427917 114.76221735346914 q2 6 0 10" stroke="#fff1e6" stroke-width="1.2" fill="none"/></g><g transform="rotate(49.11696368828416 159.4936755402474 158.15986008745674)"><ellipse cx="159.4936755402474" cy="166.15986008745674" rx="12" ry="3" fill="#3b2a1a" opacity="0.18" filter="url(#blur)"/><path d="M147.4936755402474 162.15986008745674 Q145.4936755402474 146.15986008745674 161.4936755402474 146.15986008745674 Q173.4936755402474 148.15986008745674 171.4936755402474 160.15986008745674 Q163.4936755402474 156.15986008745674 155.4936755402474 164.15986008745674 Z" fill="url(#g70)"/><path d="M153.4936755402474 149.15986008745674 q2 6 0 12 M160.4936755402474 147.15986008745674 q2 6 0 10" stroke="#fff1e6" stroke-width="1.2" fill="none"/></g><g transform="rotate(-24.933903766795993 106.8911294532176 125.26074945606551)"><ellipse cx="106.8911294532176" cy="133.26074945606553" rx="12" ry="3" fill="#3b2a1a" opacity="0.18" filter="url(#blur)"/><path d="M94.8911294532176 129.26074945606553 Q92.8911294532176 113.26074945606551 108.8911294532176 113.26074945606551 Q120.8911294532176 115.26074945606551 118.8911294532176 127.26074945606551 Q110.8911294532176 123.26074945606551 102.8911294532176 131.26074945606553 Z" fill="url(#g71)"/><path d="M100.8911294532176 116.26074945606551 q2 6 0 12 M107.8911294532176 114.26074945606551 q2 6 0 10" stroke="#fff1e6" stroke-width="1.2" fill="none"/></g><g transform="rotate(84.1095423605293 139.6597290761928 93.20667546950628)"><ellipse cx="139.6597290761928" cy="101.20667546950628" rx="12" ry="3" fill="#3b2a1a" opacity="0.18" filter="url(#blur)"/><path d="M127.6597290761928 97.20667546950628 Q125.6597290761928 81.20667546950628 141.6597290761928 81.20667546950628 Q153.6597290761928 83.20667546950628 151.6597290761928 95.20667546950628 Q143.6597290761928 91.20667546950628 135.6597290761928 99.20667546950628 Z" fill="url(#g72)"/><path d="M133.6597290761928 84.20667546950628 q2 6 0 12 M140.6597290761928 82.20667546950628 q2 6 0 10" stroke="#fff1e6" stroke-width="1.2" fill="none"/></g><g transform="rotate(-84.26463640294969 82.3010610957312 160.83279230226623)"><ellipse cx="82.3010610957312" cy="168.83279230226623" rx="12" ry="3" fill="#3b2a1a" opacity="0.18" filter="url(#blur)"/><path d="M70.3010610957312 164.83279230226623 Q68.3010610957312 148.83279230226623 84.3010610957312 148.83279230226623 Q96.3010610957312 150.83279230226623 94.3010610957312 162.83279230226623 Q86.3010610957312 158.83279230226623 78.3010610957312 166.83279230226623 Z" fill="url(#g73)"/><path d="M76.3010610957312 151.83279230226623 q2 6 0 12 M83.3010610957312 149.83279230226623 q2 6 0 10" stroke="#fff1e6" stroke-width="1.2" fill="none"/></g><g transform="rotate(74.13309417665005 170.05404746667395 120.81871548982821)"><ellipse cx="170.05404746667395" cy="128.8187154898282" rx="12" ry="3" fill="#3b2a1a" opacity="0.18" filter="url(#blur)"/><path d="M158.05404746667395 124.81871548982821 Q156.05404746667395 108.81871548982821 172.05404746667395 108.81871548982821 Q184.05404746667395 110.81871548982821 182.05404746667395 122.81871548982821 Q174.05404746667395 118.81871548982821 166.05404746667395 126.81871548982821 Z" fill="url(#g74)"/><path d="M164.05404746667395 111.81871548982821 q2 6 0 12 M171.05404746667395 109.81871548982821 q2 6 0 10" stroke="#fff1e6" stroke-width="1.2" fill="none"/></g><g transform="rotate(-38.95722976885736 77.75820055929606 97.33950441795642)"><ellipse cx="77.75820055929606" cy="105.33950441795642" rx="12" ry="3" fill="#3b2a1a" opacity="0.18" filter="url(#blur)"/><path d="M65.75820055929606 101.33950441795642 Q63.75820055929606 85.33950441795642 79.75820055929606 85.33950441795642 Q91.75820055929606 87.33950441795642 89.75820055929606 99.33950441795642 Q81.75820055929606 95.33950441795642 73.75820055929606 103.33950441795642 Z" fill="url(#g75)"/><path d="M71.75820055929606 88.33950441795642 q2 6 0 12 M78.75820055929606 86.33950441795642 q2 6 0 10" stroke="#fff1e6" stroke-width="1.2" fill="none"/></g><g transform="rotate(67.1084118168801 138.05265821261892 126.1393479053746)"><ellipse cx="138.05265821261892" cy="134.13934790537462" rx="12" ry="3" fill="#3b2a1a" opacity="0.18" filter="url(#blur)"/><path d="M126.05265821261892 130.13934790537462 Q124.05265821261892 114.1393479053746 140.05265821261892 114.1393479053746 Q152.05265821261892 116.1393479053746 150.05265821261892 128.13934790537462 Q142.05265821261892 124.1393479053746 134.05265821261892 132.13934790537462 Z" fill="url(#g76)"/><path d="M132.05265821261892 117.1393479053746 q2 6 0 12 M139.05265821261892 115.1393479053746 q2 6 0 10" stroke="#fff1e6" stroke-width="1.2" fill="none"/></g></svg>