<svg xmlns="http://www.w3.org/2000/svg" viewBox="14 34 212 212"><defs><filter id="blur" x="-30%" y="-30%" width="160%" height="160%"><feGaussianBlur stdDeviation="3"/></filter><linearGradient id="l310" x1="0" y1="0" x2="0" y2="1"><stop offset="0" stop-color="#ffffff"/><stop offset="1" stop-color="#e7ecf2"/></linearGradient><linearGradient id="l311" x1="0" y1="0" x2="0" y2="1"><stop offset="0" stop-color="#f3f6f9"/><stop offset="1" stop-color="#ffffff"/></linearGradient><radialGradient id="g312" cx="35%" cy="30%" r="80%"><stop offset="0" stop-color="#fff6b3"/><stop offset=".55" stop-color="#f7d64a"/><stop offset="1" stop-color="#d7a81a"/></radialGradient></defs><rect width="240" height="240" fill="#FFF6E8"/><ellipse cx="120" cy="140" rx="98" ry="74.1" fill="#3b2a1a" opacity="0.2" filter="url(#blur)"/><ellipse cx="120" cy="132" rx="100" ry="78" fill="url(#l310)"/><ellipse cx="120" cy="134" rx="78" ry="59.28" fill="url(#l311)" stroke="#dfe5ec" stroke-width="1.5"/><ellipse cx="122" cy="162" rx="62" ry="9" fill="#3b2a1a" opacity="0.18" filter="url(#blur)"/><path d="M64 132 Q60 104 90 102 Q104 86 126 96 Q154 88 168 108 Q190 118 178 140 Q170 162 140 158 Q118 170 96 158 Q66 156 64 132Z" fill="url(#g312)"/><circle cx="117.5" cy="145.9" r="2.2" fill="#e0321f"/><circle cx="130.1" cy="130.9" r="3.8" fill="#e0321f"/><circle cx="117.8" cy="129.1" r="4.2" fill="#e0321f"/><circle cx="126.9" cy="124.0" r="2.0" fill="#e0321f"/><circle cx="89.5" cy="129.2" r="4.2" fill="#e0321f"/><circle cx="155.4" cy="122.4" r="3.9" fill="#e0321f"/><circle cx="96.7" cy="125.6" r="3.0" fill="#e0321f"/><circle cx="123.7" cy="116.3" r="4.1" fill="#e0321f"/><circle cx="111.4" cy="115.8" r="3.4" fill="#e0321f"/><circle cx="106.6" cy="134.3" r="2.7" fill="#e0321f"/><circle cx="117.1" cy="147.2" r="3.7" fill="#3fa03a"/><circle cx="156.4" cy="138.2" r="2.6" fill="#3fa03a"/><circle cx="166.3" cy="129.9" r="2.4" fill="#3fa03a"/><circle cx="144.7" cy="118.0" r="3.5" fill="#3fa03a"/><circle cx="91.2" cy="131.4" r="1.6" fill="#3fa03a"/><circle cx="89.5" cy="142.0" r="3.4" fill="#3fa03a"/><circle cx="135.3" cy="121.6" r="1.8" fill="#3fa03a"/><circle cx="117.0" cy="134.9" r="3.8" fill="#3fa03a"/><circle cx="116.6" cy="148.4" r="2.6" fill="#f3e6f7"/><circle cx="143.4" cy="138.5" r="1.8" fill="#f3e6f7"/><circle cx="83.8" cy="138.6" r="3.4" fill="#f3e6f7"/><circle cx="162.8" cy="120.0" r="2.5" fill="#f3e6f7"/><circle cx="93.6" cy="133.3" r="2.0" fill="#f3e6f7"/><circle cx="150.9" cy="113.6" r="3.2" fill="#f3e6f7"/><circle cx="131.0" cy="136.1" r="3.4" fill="#f3e6f7"/><circle cx="151.5" cy="117.5" r="3.6" fill="#f3e6f7"/></svg>