<svg xmlns="http://www.w3.org/2000/svg" viewBox="14 34 212 212"><defs><filter id="blur" x="-30%" y="-30%" width="160%" height="160%"><feGaussianBlur stdDeviation="3"/></filter><linearGradient id="l394" x1="0" y1="0" x2="0" y2="1"><stop offset="0" stop-color="#ffffff"/><stop offset="1" stop-color="#e7ecf2"/></linearGradient><linearGradient id="l395" x1="0" y1="0" x2="0" y2="1"><stop offset="0" stop-color="#f3f6f9"/><stop offset="1" stop-color="#ffffff"/></linearGradient><radialGradient id="g396" cx="35%" cy="30%" r="80%"><stop offset="0" stop-color="#b6e39a"/><stop offset=".55" stop-color="#6fae4a"/><stop offset="1" stop-color="#3f7a28"/></radialGradient><radialGradient id="g397" cx="35%" cy="30%" r="80%"><stop offset="0" stop-color="#ffffff"/><stop offset=".55" stop-color="#f7f3ea"/><stop offset="1" stop-color="#ddd3bd"/></radialGradient></defs><rect width="240" height="240" fill="#FFF6E8"/><ellipse cx="120" cy="140" rx="98" ry="74.1" fill="#3b2a1a" opacity="0.2" filter="url(#blur)"/><ellipse cx="120" cy="132" rx="100" ry="78" fill="url(#l394)"/><ellipse cx="120" cy="134" rx="78" ry="59.28" fill="url(#l395)" stroke="#dfe5ec" stroke-width="1.5"/><ellipse cx="122" cy="160" rx="48" ry="8" fill="#3b2a1a" opacity="0.18" filter="url(#blur)"/><path d="M76 128 A46 40 0 0 1 168 128 Z" fill="url(#g396)"/><path d="M84 128 A38 30 0 0 1 160 128 Z" fill="url(#g397)"/><ellipse cx="96" cy="118" rx="5" ry="7" fill="#3a2a1c"/><ellipse cx="110" cy="118" rx="5" ry="7" fill="#3a2a1c"/><ellipse cx="124" cy="118" rx="5" ry="7" fill="#3a2a1c"/><ellipse cx="138" cy="118" rx="5" ry="7" fill="#3a2a1c"/><ellipse cx="152" cy="118" rx="5" ry="7" fill="#3a2a1c"/><path d="M76 128 L168 128" stroke="#3f7a28" stroke-width="3"/></svg>