<svg xmlns="http://www.w3.org/2000/svg" viewBox="14 34 212 212"><defs><filter id="blur" x="-30%" y="-30%" width="160%" height="160%"><feGaussianBlur stdDeviation="3"/></filter><linearGradient id="l275" x1="0" y1="0" x2="0" y2="1"><stop offset="0" stop-color="#ffffff"/><stop offset="1" stop-color="#e7ecf2"/></linearGradient><linearGradient id="l276" x1="0" y1="0" x2="0" y2="1"><stop offset="0" stop-color="#f3f6f9"/><stop offset="1" stop-color="#ffffff"/></linearGradient><radialGradient id="g277" cx="35%" cy="30%" r="80%"><stop offset="0" stop-color="#4a4440"/><stop offset=".55" stop-color="#1f1b19"/><stop offset="1" stop-color="#060505"/></radialGradient><radialGradient id="g278" cx="35%" cy="30%" r="80%"><stop offset="0" stop-color="#4a4440"/><stop offset=".55" stop-color="#1f1b19"/><stop offset="1" stop-color="#060505"/></radialGradient><radialGradient id="g279" cx="35%" cy="30%" r="80%"><stop offset="0" stop-color="#4a4440"/><stop offset=".55" stop-color="#1f1b19"/><stop offset="1" stop-color="#060505"/></radialGradient><radialGradient id="g280" cx="35%" cy="30%" r="80%"><stop offset="0" stop-color="#4a4440"/><stop offset=".55" stop-color="#1f1b19"/><stop offset="1" stop-color="#060505"/></radialGradient><radialGradient id="g281" cx="35%" cy="30%" r="80%"><stop offset="0" stop-color="#4a4440"/><stop offset=".55" stop-color="#1f1b19"/><stop offset="1" stop-color="#060505"/></radialGradient><radialGradient id="g282" cx="35%" cy="30%" r="80%"><stop offset="0" stop-color="#4a4440"/><stop offset=".55" stop-color="#1f1b19"/><stop offset="1" stop-color="#060505"/></radialGradient><radialGradient id="g283" cx="35%" cy="30%" r="80%"><stop offset="0" stop-color="#4a4440"/><stop offset=".55" stop-color="#1f1b19"/><stop offset="1" stop-color="#060505"/></radialGradient><radialGradient id="g284" cx="35%" cy="30%" r="80%"><stop offset="0" stop-color="#4a4440"/><stop offset=".55" stop-color="#1f1b19"/><stop offset="1" stop-color="#060505"/></radialGradient><radialGradient id="g285" cx="35%" cy="30%" r="80%"><stop offset="0" stop-color="#4a4440"/><stop offset=".55" stop-color="#1f1b19"/><stop offset="1" stop-color="#060505"/></radialGradient><radialGradient id="g286" cx="35%" cy="30%" r="80%"><stop offset="0" stop-color="#4a4440"/><stop offset=".55" stop-color="#1f1b19"/><stop offset="1" stop-color="#060505"/></radialGradient></defs><rect width="240" height="240" fill="#FFF6E8"/><ellipse cx="120" cy="140" rx="98" ry="74.1" fill="#3b2a1a" opacity="0.2" filter="url(#blur)"/><ellipse cx="120" cy="132" rx="100" ry="78" fill="url(#l275)"/><ellipse cx="120" cy="134" rx="78" ry="59.28" fill="url(#l276)" stroke="#dfe5ec" stroke-width="1.5"/><ellipse cx="123.15230439601729" cy="175.52204697170177" rx="12.35" ry="4" fill="#3b2a1a" opacity="0.18" filter="url(#blur)"/><ellipse cx="121.15230439601729" cy="167.52204697170177" rx="13" ry="10" transform="rotate(-34.80171963572502 121.15230439601729 167.52204697170177)" fill="url(#g277)" /><ellipse cx="117.15230439601729" cy="163.52204697170177" rx="4" ry="2" fill="#ffffff" opacity=".2"/><ellipse cx="81.6450377874067" cy="165.34902387528115" rx="12.35" ry="4" fill="#3b2a1a" opacity="0.18" filter="url(#blur)"/><ellipse cx="79.6450377874067" cy="157.34902387528115" rx="13" ry="10" transform="rotate(86.71064430847764 79.6450377874067 157.34902387528115)" fill="url(#g278)" /><ellipse cx="75.6450377874067" cy="153.34902387528115" rx="4" ry="2" fill="#ffffff" opacity=".2"/><ellipse cx="150.27438475488452" cy="144.1479040548258" rx="12.35" ry="4" fill="#3b2a1a" opacity="0.18" filter="url(#blur)"/><ellipse cx="148.27438475488452" cy="136.1479040548258" rx="13" ry="10" transform="rotate(88.03482835181057 148.27438475488452 136.1479040548258)" fill="url(#g279)" /><ellipse cx="144.27438475488452" cy="132.1479040548258" rx="4" ry="2" fill="#ffffff" opacity=".2"/><ellipse cx="151.0348072999254" cy="106.8010653042993" rx="12.35" ry="4" fill="#3b2a1a" opacity="0.18" filter="url(#blur)"/><ellipse cx="149.0348072999254" cy="98.8010653042993" rx="13" ry="10" transform="rotate(-9.757394269108772 149.0348072999254 98.8010653042993)" fill="url(#g280)" /><ellipse cx="145.0348072999254" cy="94.8010653042993" rx="4" ry="2" fill="#ffffff" opacity=".2"/><ellipse cx="95.45982490829692" cy="138.4030103051376" rx="12.35" ry="4" fill="#3b2a1a" opacity="0.18" filter="url(#blur)"/><ellipse cx="93.45982490829692" cy="130.4030103051376" rx="13" ry="10" transform="rotate(-57.21194786019623 93.45982490829692 130.4030103051376)" fill="url(#g281)" /><ellipse cx="89.45982490829692" cy="126.4030103051376" rx="4" ry="2" fill="#ffffff" opacity=".2"/><ellipse cx="113.55328008840016" cy="106.24182068440926" rx="12.35" ry="4" fill="#3b2a1a" opacity="0.18" filter="url(#blur)"/><ellipse cx="111.55328008840016" cy="98.24182068440926" rx="13" ry="10" transform="rotate(42.668457040563226 111.55328008840016 98.24182068440926)" fill="url(#g282)" /><ellipse cx="107.55328008840016" cy="94.24182068440926" rx="4" ry="2" fill="#ffffff" opacity=".2"/><ellipse cx="81.44327299926964" cy="106.70061016040646" rx="12.35" ry="4" fill="#3b2a1a" opacity="0.18" filter="url(#blur)"/><ellipse cx="79.44327299926964" cy="98.70061016040646" rx="13" ry="10" transform="rotate(-65.53308332338929 79.44327299926964 98.70061016040646)" fill="url(#g283)" /><ellipse cx="75.44327299926964" cy="94.70061016040646" rx="4" ry="2" fill="#ffffff" opacity=".2"/><ellipse cx="178.24511296544705" cy="131.16640032623587" rx="12.35" ry="4" fill="#3b2a1a" opacity="0.18" filter="url(#blur)"/><ellipse cx="176.24511296544705" cy="123.16640032623586" rx="13" ry="10" transform="rotate(-56.442929450422525 176.24511296544705 123.16640032623586)" fill="url(#g284)" /><ellipse cx="172.24511296544705" cy="119.16640032623586" rx="4" ry="2" fill="#ffffff" opacity=".2"/><ellipse cx="62.246378638070055" cy="139.17856067772354" rx="12.35" ry="4" fill="#3b2a1a" opacity="0.18" filter="url(#blur)"/><ellipse cx="60.246378638070055" cy="131.17856067772354" rx="13" ry="10" transform="rotate(40.42734785936773 60.246378638070055 131.17856067772354)" fill="url(#g285)" /><ellipse cx="56.246378638070055" cy="127.17856067772354" rx="4" ry="2" fill="#ffffff" opacity=".2"/><ellipse cx="157.63204006520544" cy="173.3238254759064" rx="12.35" ry="4" fill="#3b2a1a" opacity="0.18" filter="url(#blur)"/><ellipse cx="155.63204006520544" cy="165.3238254759064" rx="13" ry="10" transform="rotate(12.224875101819634 155.63204006520544 165.3238254759064)" fill="url(#g286)" /><ellipse cx="151.63204006520544" cy="161.3238254759064" rx="4" ry="2" fill="#ffffff" opacity=".2"/></svg>